inDegrees=no
num_controls=7
num_derivatives=13
num_iterations=123
num_multipliers=7
num_parameters=0
num_slacks=7
num_states=26
objective=0.496347
objective_accelerations=0.032264
objective_balance=0.003253
objective_effort=0.035376
objective_height=0.419874
objective_ligament=0.005580
solver_duration=1390.186922
status=Solve_Succeeded
success=true
DataType=double
version=3
OpenSimVersion=4.5
endheader
time	/jointset/ground_pelvis/pelvis_tilt/value	/jointset/ground_pelvis/pelvis_tx/value	/jointset/ground_pelvis/pelvis_ty/value	/jointset/hip_r/hip_flexion_r/value	/jointset/hip_r/hip_adduction_r/value	/jointset/hip_r/hip_rotation_r/value	/jointset/back/lumbar_extension/value	/jointset/patellofemoral_r/patellar_flexion_r/value	/jointset/knee_r/knee_flexion_r/value	/jointset/knee_r/knee_adduction_r/value	/jointset/knee_r/knee_rotation_r/value	/jointset/ankle_r/ankle_angle_r/value	/jointset/subtalar_r/subtalar_angle_r/value	/jointset/ground_pelvis/pelvis_tilt/speed	/jointset/ground_pelvis/pelvis_tx/speed	/jointset/ground_pelvis/pelvis_ty/speed	/jointset/hip_r/hip_flexion_r/speed	/jointset/hip_r/hip_adduction_r/speed	/jointset/hip_r/hip_rotation_r/speed	/jointset/back/lumbar_extension/speed	/jointset/patellofemoral_r/patellar_flexion_r/speed	/jointset/knee_r/knee_flexion_r/speed	/jointset/knee_r/knee_adduction_r/speed	/jointset/knee_r/knee_rotation_r/speed	/jointset/ankle_r/ankle_angle_r/speed	/jointset/subtalar_r/subtalar_angle_r/speed	/forceset/tau_hip_flexion_r	/forceset/tau_hip_adduction_r	/forceset/tau_hip_rotation_r	/forceset/tau_knee_flexion_r	/forceset/tau_ankle_angle_r	/forceset/tau_subtalar_angle_r	/forceset/tau_lumbar_extension	lambda_cid13_p0	lambda_cid14_p0	lambda_cid14_p1	lambda_cid14_p2	lambda_cid14_p3	lambda_cid14_p4	lambda_cid14_p5	/jointset/ground_pelvis/pelvis_tilt/accel	/jointset/ground_pelvis/pelvis_tx/accel	/jointset/ground_pelvis/pelvis_ty/accel	/jointset/hip_r/hip_flexion_r/accel	/jointset/hip_r/hip_adduction_r/accel	/jointset/hip_r/hip_rotation_r/accel	/jointset/back/lumbar_extension/accel	/jointset/patellofemoral_r/patellar_flexion_r/accel	/jointset/knee_r/knee_flexion_r/accel	/jointset/knee_r/knee_adduction_r/accel	/jointset/knee_r/knee_rotation_r/accel	/jointset/ankle_r/ankle_angle_r/accel	/jointset/subtalar_r/subtalar_angle_r/accel	gamma_cid13_p0	gamma_cid14_p0	gamma_cid14_p1	gamma_cid14_p2	gamma_cid14_p3	gamma_cid14_p4	gamma_cid14_p5
1	-0.1913511183628072	0.03683111529163581	0.7463841077830848	1.115369309629287	-0.2368656286748509	-0.0685714607051312	-0.4362864457669708	1.166352887847328	1.166352887847474	-0.02826127643290849	0.1745306934128241	0.4363100663809865	0.1028017311724105	0.001079823190990444	0.004763905811566042	0.01349942444846166	-0.03976686047757494	0.001715537393948284	-0.01029563020148452	0.004668338969853449	-0.04740846703039959	-0.04740846703039988	0.0007998907212215852	-4.415532108689328e-05	-0.01008237705557047	-0.0007327024691576753	-0.2062564664408079	0.03185011316322497	0.01325438000388886	-0.4430999207240419	-0.04366581308514977	0.004066917960745832	0.2494172364371832	-2.770923521662366	-61.43950754199586	-9.556330256624751	2.628851800033507	20.60149860287374	-772.9118813659372	53.40232111374152	1.001435050293627	0.01578697727753868	1.265364988941643	-3.998191244403631	0.1203649557224329	-0.6167358429679639	0.2903251672415791	-4.377689484872797	-4.377689484872771	0.4656277382465938	0.001153911624959393	-1.56753139084698	-0.3871633609995362	9.633744802838001e-10	-2.377483545161552e-09	2.942563824306564e-09	9.038000959240326e-09	6.656609986120934e-09	-3.510082513979427e-09	1.19060246859458e-09
1.01	-0.1912912707486423	0.03687969573854148	0.7465822112373385	1.114772774812688	-0.2368425570583224	-0.06870464185834269	-0.436223216023635	1.165660164276131	1.165660164276133	-0.02822933777471085	0.174530212570607	0.4361310505806503	0.1027749302229864	0.01084849795684545	0.004969353206363444	0.02611824450763064	-0.07952242649622412	0.002896562132662107	-0.01633803889796199	0.008111941313821341	-0.09114288480312675	-0.09114288480312938	0.005595813109304894	-5.147663438571278e-05	-0.02570404447747912	-0.00462413013286735	-0.2068477506534736	0.03195442984859864	0.01325591342334742	-0.4426447257206412	-0.04391737755337047	0.004066536104749643	0.2500706494295875	-2.797337203940948	-61.52742137354262	-9.568187665514831	2.626514167784057	20.44516155339309	-773.204990506009	53.34065326292241	0.9584041932170236	0.02550018050538354	1.259685975858898	-3.961587252231462	0.1166407532518608	-0.5976079428850047	0.3915275104411303	-4.372313937327043	-4.372313937327434	0.4877710668160742	-0.001591066483854644	-1.556974337599779	-0.3896256271546247	1.864579718138312e-09	-1.309688667669054e-09	7.79772054932833e-09	1.631936225706853e-08	5.582923876967878e-09	-6.244131469006845e-09	6.702212671161522e-09
1.02	-0.1911349722861216	0.03693084597138002	0.7469064119844747	1.113779214741581	-0.2368077412903452	-0.06889817001049901	-0.436121520308365	1.164529897324436	1.164529897324292	-0.02814920057708582	0.1745296753325223	0.4357963201221475	0.1027093163653057	0.02036999286212554	0.005277862998142398	0.03871888302498627	-0.1191719113803074	0.004064367683615957	-0.0223650299903341	0.0123615333564595	-0.1349171431300288	-0.1349171431300349	0.01043959860646315	-5.543449474625962e-05	-0.04122530868886696	-0.008495284120494967	-0.2074390348661039	0.03205874653397296	0.01325744684280018	-0.4421895307172368	-0.04416894202159368	0.004066154248753697	0.2507240624220244	-2.840751444920834	-61.62552972861092	-9.576763283424844	2.617865884182732	20.30908739565264	-773.6621616240901	53.30364955989997	0.9519990781786476	0.03639945667384516	1.261728680578973	-3.976975017490461	0.1177211181704373	-0.6136523221468946	0.4515231069756353	-4.385657595707772	-4.385657595707966	0.4752003600615837	0.00182660221261886	-1.547450748742823	-0.3831086257831294	2.699082931412285e-09	-4.96125591982873e-10	1.162939126111752e-08	2.447539698126837e-08	5.201048292554343e-09	-8.062200333689787e-09	1.028987609796197e-08
1.03	-0.1908847003425893	0.03698560825106614	0.7473564744311127	1.112389765181858	-0.2367613264800605	-0.0691518690065222	-0.4359732879050929	1.16296176805914	1.162961768059113	-0.02802036320884134	0.1745291227297781	0.4353068883986869	0.1026050850762454	0.02964031413054617	0.005693029365000494	0.05128489545435131	-0.1586902188270933	0.005215396015298224	-0.02836958739470702	0.01742360702339314	-0.1787071337417509	-0.1787071337417453	0.01533793328863941	-5.464584192791001e-05	-0.05664327653167064	-0.01234780207306922	-0.2077986327419228	0.03209609595733492	0.01326897819083887	-0.4415190398709025	-0.04420563143920015	0.004034228387153398	0.2511907649206179	-2.901540223739696	-61.6336532981649	-9.581154937043253	2.606120018436327	20.11677282486769	-773.7514308613819	53.24244221256786	0.9079375261892448	0.04684165354391572	1.252728911727984	-3.935090456138416	0.1133199191429438	-0.5930775968442986	0.5543484553602064	-4.375434077420365	-4.375434077418499	0.4986601148390975	-0.0007217031292244622	-1.536306788755732	-0.3858412169744205	3.532905511782374e-09	3.148432816440583e-10	1.54506182380778e-08	3.264035694451281e-08	4.826231999209583e-09	-9.870922462756962e-09	1.385790741480561e-08
1.04	-0.1905430474113697	0.03704507547979127	0.747931935279567	1.110605966178095	-0.2367034961407636	-0.06946545760604154	-0.435770274973389	1.160955786031022	1.160955786031113	-0.02784224047526585	0.1745285926735726	0.4346638095994568	0.1024624250402634	0.03864619039958684	0.006218852805942861	0.06379856338823379	-0.1980418001885086	0.006347473486012957	-0.0343429506895522	0.0233176390426467	-0.2224876956941104	-0.2224876956940927	0.02029667167255361	-5.092518693606257e-05	-0.07195472384273827	-0.01618103350483756	-0.2081582306177234	0.03213344538069821	0.01328050953887362	-0.4408485490245663	-0.04424232085680753	0.004002302525555061	0.2516574674192281	-2.980220292538781	-61.65191760450296	-9.582167102066656	2.587947090652922	19.94296174649584	-774.0051438045083	53.20630321666444	0.8991100783026619	0.05853087149069579	1.251259781482463	-3.943629800416335	0.1139309459769287	-0.6074135002413478	0.6179147774396196	-4.383771863835236	-4.383771863835363	0.4872811004091716	0.002413002647324664	-1.526146642395616	-0.379251321621953	4.430035045433754e-09	1.232970471315465e-09	1.816874134645004e-08	4.107848884215055e-08	4.35197026726704e-09	-1.172054204675026e-08	1.656359510878633e-08
